<svg width="110" height="32" viewBox="0 0 110 32" fill="none" xmlns="http://www.w3.org/2000/svg" class="jsx-2707942464 TextLogo"><title class="jsx-2707942464">Tibber</title><path d="M38.8032 12.4857H35.09V9.51047C35.09 9.23206 34.8652 9.00732 34.5868 9.00732H33.8556C33.5772 9.00732 33.3524 9.23206 33.3524 9.51047V12.4857H31.6619C31.3834 12.4857 31.1587 12.7105 31.1587 12.9889V13.7201C31.1587 13.9985 31.3834 14.2233 31.6619 14.2233H33.3524V23.6086C33.3524 25.6413 34.9927 27.2983 37.0086 27.2983H37.0254C37.8271 27.2983 38.4442 27.248 38.8702 27.1944C39.1218 27.1642 39.3063 26.9495 39.3063 26.6946V26.1076C39.3063 25.809 39.0447 25.5742 38.7495 25.6078C38.2698 25.6648 37.6996 25.705 37.2401 25.705C36.056 25.705 35.09 24.739 35.09 23.5549V14.2233H38.8032C39.0816 14.2233 39.3063 13.9985 39.3063 13.7201V12.9889C39.3063 12.7105 39.0816 12.4857 38.8032 12.4857V12.4857Z" fill="#23B8CC" class="jsx-2707942464"></path><path d="M108.916 12.2471C105.143 12.2471 104.063 15.3632 104.063 15.3632V12.8877C104.063 12.6462 103.868 12.4517 103.627 12.4517H102.761C102.52 12.4517 102.325 12.6462 102.325 12.8877V26.6806C102.325 26.9221 102.52 27.1167 102.761 27.1167H103.627C103.868 27.1167 104.063 26.9221 104.063 26.6806V18.6102C104.063 18.3922 104.15 13.9645 108.916 13.9645H109.138C109.379 13.9645 109.574 13.7699 109.574 13.5284V12.6898C109.574 12.455 109.389 12.2638 109.155 12.2504C109.074 12.2504 108.997 12.2471 108.916 12.2471Z" fill="#23B8CC" class="jsx-2707942464"></path><path d="M74.8042 12.1303C72.4461 12.1303 70.2826 13.2506 68.8637 15.2062L68.5618 15.6221V7.0217C68.5618 6.74329 68.3371 6.51855 68.0587 6.51855H67.3274C67.049 6.51855 66.8243 6.74329 66.8243 7.01834V26.6175C66.8243 26.8959 67.049 27.1173 67.3274 27.1173H68.0587C68.3371 27.1173 68.5618 26.8926 68.5618 26.6142V24.0381L68.8637 24.454C70.2826 26.4096 72.4495 27.5299 74.8042 27.5299C78.8998 27.5299 82.234 24.075 82.234 19.8284C82.234 15.5852 78.8998 12.1303 74.8042 12.1303ZM74.5761 25.9333C71.7317 25.9333 69.2428 23.8972 68.6658 21.0896C68.582 20.6804 68.5384 20.2611 68.5384 19.8418C68.5384 19.4225 68.582 19.0033 68.6658 18.594C69.2461 15.7898 71.7317 13.7504 74.5761 13.7504C77.9069 13.7504 80.6138 16.4808 80.6138 19.8385C80.6138 23.1961 77.9069 25.9333 74.5761 25.9333Z" fill="#23B8CC" class="jsx-2707942464"></path><path d="M56.7942 12.1303C54.4361 12.1303 52.2726 13.2506 50.8537 15.2062L50.5518 15.6221V7.0217C50.5518 6.74329 50.3271 6.51855 50.0487 6.51855C49.8172 6.51855 49.5489 6.51855 49.3174 6.51855C49.039 6.51855 48.8143 6.74329 48.8143 7.0217V26.6175C48.8143 26.8959 49.039 27.1207 49.3174 27.1207H50.0487C50.3271 27.1207 50.5518 26.8959 50.5518 26.6175V24.0414L50.8537 24.4574C52.2726 26.4129 54.4394 27.5333 56.7942 27.5333C60.8898 27.5333 64.2239 24.0783 64.2239 19.8318C64.2239 15.5852 60.8898 12.1303 56.7942 12.1303V12.1303ZM56.5594 25.9333C53.7116 25.9333 51.2227 23.8972 50.6424 21.0896C50.5585 20.6804 50.5149 20.2611 50.5149 19.8418C50.5149 19.4225 50.5585 19.0033 50.6424 18.594C51.2227 15.7898 53.7116 13.7504 56.5594 13.7504C59.8935 13.7504 62.6038 16.4808 62.6038 19.8385C62.6038 23.1961 59.8935 25.9333 56.5594 25.9333V25.9333Z" fill="#23B8CC" class="jsx-2707942464"></path><path d="M43.844 6.84375C43.1228 6.84375 42.5392 7.43076 42.5392 8.14858C42.5392 8.8664 43.1262 9.45341 43.844 9.45341C44.5652 9.45341 45.1488 8.8664 45.1488 8.14858C45.1488 7.43076 44.5652 6.84375 43.844 6.84375Z" fill="#23B8CC" class="jsx-2707942464"></path><path d="M44.209 12.4854H42.2366C41.9582 12.4854 41.7335 12.7101 41.7335 12.9885V13.7197C41.7335 13.9981 41.9582 14.2229 42.2366 14.2229H42.9746V26.6204C42.9746 26.8988 43.1993 27.1235 43.4777 27.1235H44.209C44.4874 27.1235 44.7121 26.8988 44.7121 26.6204V12.9919C44.7121 12.7101 44.4874 12.4854 44.209 12.4854Z" fill="#23B8CC" class="jsx-2707942464"></path><path d="M91.8297 12.1431C87.5228 12.1431 84.3966 15.38 84.3966 19.8445C84.3966 24.3058 87.5228 27.546 91.8297 27.546C95.1371 27.546 97.153 25.8555 98.1324 24.6848C98.3035 24.4802 98.2566 24.175 98.0318 24.0307L97.3476 23.6014C97.1664 23.4873 96.9283 23.5209 96.7874 23.6852C96.1366 24.45 94.5266 25.9225 91.8264 25.9225C88.9249 25.9225 86.3924 23.7288 85.9999 20.6563H98.8134C99.0448 20.6563 99.236 20.4752 99.2494 20.2471C99.2561 20.0995 99.2628 19.9687 99.2628 19.8479C99.2628 15.5242 95.9991 12.1431 91.8297 12.1431ZM97.5689 19.0563H85.9999C86.4192 15.8965 88.9182 13.7665 91.8297 13.7665C94.8956 13.7665 97.1396 15.7691 97.5454 18.8684L97.5689 19.0563Z" fill="#23B8CC" class="jsx-2707942464"></path><g class="jsx-2707942464 bolt"><path d="M1.83513 19.5331H14.6989C15.1453 19.5331 15.5151 19.1712 15.5151 18.7247C15.5151 18.2783 15.1453 17.9164 14.6989 17.9164H1.83513C1.71773 17.9164 1.66406 17.8459 1.63723 17.7889C1.6104 17.7319 1.59363 17.6447 1.67077 17.5574L15.4871 1.6983C15.5173 1.66811 15.6012 1.56748 15.7555 1.65134C15.9064 1.7352 15.8729 1.86266 15.8595 1.90291L13.7684 9.00434C13.6418 9.43437 13.8895 9.88528 14.3204 10.009C14.7472 10.1317 15.193 9.88676 15.3184 9.46075L17.4125 2.34903C17.6574 1.50375 17.3018 0.651755 16.527 0.232468C15.7555 -0.190175 14.8465 -0.0258115 14.2695 0.63834L0.453162 16.4975C-0.0231494 17.0442 -0.133843 17.7956 0.168044 18.4597C0.466577 19.1205 1.10725 19.5331 1.83513 19.5331Z" fill="#23B8CC" class="jsx-2707942464"></path><path d="M22.6495 12.4669H9.78573C9.33927 12.4669 8.96949 12.8288 8.96949 13.2753C8.96949 13.7217 9.33927 14.0836 9.78573 14.0836H22.6495C22.7669 14.0836 22.8206 14.1541 22.8474 14.2111C22.8742 14.2681 22.891 14.3553 22.8138 14.4426L8.99747 30.3017C8.96728 30.3319 8.88343 30.4325 8.72913 30.3487C8.57819 30.2648 8.61173 30.1373 8.62515 30.0971L10.7162 22.9957C10.8428 22.5656 10.5951 22.1147 10.1642 21.991C9.7374 21.8683 9.29163 22.1132 9.16618 22.5393L7.0721 29.651C6.82724 30.4963 7.18279 31.3482 7.95763 31.7675C8.72912 32.1902 9.63814 32.0258 10.2151 31.3617L24.0315 15.5025C24.5078 14.9558 24.6185 14.2044 24.3166 13.5403C24.018 12.8795 23.3774 12.4669 22.6495 12.4669Z" fill="#23B8CC" class="jsx-2707942464"></path></g></svg>